# xmcd
#
# Track frame offsets: 
#        150
#        6366
#        15377
#        30059
#        42449
#        48023
#        57533
#        60033
#        63946
#        75051
#        87777
#        92947
#        101205
#        106014
#        114052
#        125616
#
# Disc length: 1731 seconds
#
# Revision: 0
# Processed by: cddbd v1.5.2PL0 Copyright (c) Steve Scherf et al.
# Submitted via: ExactAudioCopy v0.95b3
#
DISCID=ab06c110
DTITLE=Shitkickers - Noon's Moonlight
DYEAR=2006
DGENRE=alt country
TTITLE0=BurnIt Down
TTITLE1=Beer n' Bacon
TTITLE2=I Need A Bottle
TTITLE3=Workin' Song
TTITLE4=Bartles and James
TTITLE5=Noon's Midnight
TTITLE6=Bloody Mary
TTITLE7=Cactus Club
TTITLE8=Lonely Gettin' By
TTITLE9=Just A Man
TTITLE10=Pacifico Clara
TTITLE11=Home
TTITLE12=Rat Farts
TTITLE13=What Do You Want?
TTITLE14=Whiskey Haze
TTITLE15=Bloody Mary
EXTD=
EXTT0=
EXTT1=
EXTT2=
EXTT3=
EXTT4=
EXTT5=
EXTT6=
EXTT7=
EXTT8=
EXTT9=
EXTT10=
EXTT11=
EXTT12=
EXTT13=
EXTT14=
EXTT15=
PLAYORDER=
